<?xml version="1.0" encoding="UTF-8" standalone="no"?>
<svg
   fill="none"
   viewBox="0 0 97.5 122.6"
   version="1.1"
   id="svg4"
   sodipodi:docname="astro.svg"
   width="97.5"
   height="122.6"
   inkscape:version="1.3.2 (091e20ef0f, 2023-11-25)"
   xmlns:inkscape="http://www.inkscape.org/namespaces/inkscape"
   xmlns:sodipodi="http://sodipodi.sourceforge.net/DTD/sodipodi-0.dtd"
   xmlns="http://www.w3.org/2000/svg"
   xmlns:svg="http://www.w3.org/2000/svg">
  <sodipodi:namedview
     id="namedview4"
     pagecolor="#505050"
     bordercolor="#ffffff"
     borderopacity="1"
     inkscape:showpageshadow="0"
     inkscape:pageopacity="0"
     inkscape:pagecheckerboard="1"
     inkscape:deskcolor="#505050"
     inkscape:zoom="2.9375"
     inkscape:cx="48"
     inkscape:cy="61.106383"
     inkscape:window-width="1366"
     inkscape:window-height="683"
     inkscape:window-x="0"
     inkscape:window-y="0"
     inkscape:window-maximized="1"
     inkscape:current-layer="svg4" />
  <g
     id="g2"
     transform="translate(-16,-2.7)">
    <path
       d="m 16,82.4 c 0,0 16.5,-8 33,-8 L 61.4,36.1 c 0.5,-2 1.8,-3.2 3.3,-3.2 1.6,0 3,1.3 3.4,3.2 l 12.4,38.3 c 19.6,0 33,8 33,8 l -28,-76 C 84.7,4.1 83.3,2.7 81.5,2.7 H 48 c -1.8,0 -3.1,1.4 -4,3.7 z"
       id="path2" />
    <path
       d="m 47.7,107.1 c -5.5,-5 -7.2,-15.7 -4.9,-23.4 4,4.9 9.6,6.4 15.4,7.3 8.9,1.3 17.6,0.8 25.9,-3.2 l 2.8,-1.7 a 18,18 0 0 1 -7.2,20 l -5.5,3.8 c -5.6,3.8 -7.2,8.2 -5,14.7 l 0.2,0.7 a 14,14 0 0 1 -6.6,-5.6 15.8,15.8 0 0 1 -2.6,-8.6 c 0,-1.5 0,-3 -0.2,-4.5 -0.5,-3.7 -2.2,-5.3 -5.5,-5.4 -3.3,-0.1 -5.9,2 -6.6,5.2 z"
       id="path1" />
    <path
       fill="url(#a)"
       d="m 31.7,104.4 c -5.5,-5 -7.2,-15.7 -4.9,-23.4 4,4.9 9.6,6.4 15.4,7.3 8.9,1.3 17.6,0.8 25.9,-3.2 l 2.8,-1.7 a 18,18 0 0 1 -7.2,20 l -5.5,3.8 c -5.6,3.8 -7.2,8.2 -5,14.7 l 0.2,0.7 a 14,14 0 0 1 -6.6,-5.6 15.8,15.8 0 0 1 -2.6,-8.6 c 0,-1.5 0,-3 -0.2,-4.5 -0.5,-3.7 -2.2,-5.3 -5.5,-5.4 -3.3,-0.1 -5.9,2 -6.6,5.2 z"
       id="path3"
       style="fill:url(#a)"
       transform="translate(16,2.7)" />
  </g>
  <defs
     id="defs4">
    <linearGradient
       id="a"
       x1="64.699997"
       x2="77.400002"
       y1="119.2"
       y2="77.400002"
       gradientUnits="userSpaceOnUse"
       gradientTransform="translate(-16,-2.7)">
      <stop
         stop-color="#D83333"
         id="stop3" />
      <stop
         offset="1"
         stop-color="#F041FF"
         id="stop4" />
    </linearGradient>
  </defs>
  <style
     id="style4">
    g {
      fill: #000;
    }

    @media (prefers-color-scheme: dark) {
      g {
        fill: #FFF;
      }
    }
  </style>
</svg>
