<?xml version="1.0" encoding="UTF-8" standalone="no"?>
<svg
   width="321.14127"
   height="342.67004"
   viewBox="0 0 321.14127 342.67004"
   fill="none"
   version="1.1"
   id="svg3"
   sodipodi:docname="qwik.svg"
   inkscape:version="1.3.2 (091e20ef0f, 2023-11-25)"
   xmlns:inkscape="http://www.inkscape.org/namespaces/inkscape"
   xmlns:sodipodi="http://sodipodi.sourceforge.net/DTD/sodipodi-0.dtd"
   xmlns="http://www.w3.org/2000/svg"
   xmlns:svg="http://www.w3.org/2000/svg">
  <sodipodi:namedview
     id="namedview3"
     pagecolor="#505050"
     bordercolor="#ffffff"
     borderopacity="1"
     inkscape:showpageshadow="0"
     inkscape:pageopacity="0"
     inkscape:pagecheckerboard="1"
     inkscape:deskcolor="#505050"
     inkscape:zoom="0.752"
     inkscape:cx="163.56383"
     inkscape:cy="173.53723"
     inkscape:window-width="1366"
     inkscape:window-height="683"
     inkscape:window-x="0"
     inkscape:window-y="0"
     inkscape:window-maximized="1"
     inkscape:current-layer="svg3" />
  <g
     clip-path="url(#clip0_645_1322)"
     id="g3"
     transform="translate(-85.859381,-75.781942)">
    <path
       d="m 367.865,418.452 -61.166,-61.181 -0.934,0.134 v -0.671 L 175.687,227.529 207.739,196.402 188.908,87.7251 99.5631,199.085 c -15.2247,15.43 -18.0293,40.519 -7.0782,59.035 l 55.8241,93.113 c 8.547,14.356 24.039,22.943 40.733,22.809 l 27.645,-0.269 z"
       fill="#18b6f6"
       id="path1" />
    <path
       d="m 401.247,196.938 -12.286,-22.809 -6.411,-11.672 -2.537,-4.562 -0.267,0.268 -33.655,-58.6316 C 337.677,84.7728 321.918,75.6493 304.824,75.7834 l -29.515,0.805 -88.009,0.2684 c -16.694,0.1341 -31.919,8.9893 -40.332,23.3452 L 93.4141,207.001 189.17,87.4562 314.707,226.187 l -22.303,22.674 13.355,108.543 0.133,-0.268 v 0.268 h -0.267 l 0.267,0.268 10.417,10.197 50.616,49.777 c 2.137,2.012 5.609,-0.403 4.14,-2.952 l -31.251,-61.852 54.489,-101.297 1.736,-2.013 c 0.668,-0.805 1.335,-1.61 1.87,-2.415 10.683,-14.624 12.153,-34.213 3.338,-50.179 z"
       fill="#ac7ef4"
       id="path2" />
  </g>
  <defs
     id="defs3">
    <clipPath
       id="clip0_645_1322">
      <rect
         width="500"
         height="500"
         fill="#ffffff"
         id="rect3"
         x="0"
         y="0" />
    </clipPath>
  </defs>
</svg>
